<?xml version="1.0" standalone="no"?>
<svg xmlns:xlink="http://www.w3.org/1999/xlink" id="wave" style="transform:rotate(0deg); transition: 0.3s" viewBox="0 0 1440 490" version="1.1" xmlns="http://www.w3.org/2000/svg"><defs><linearGradient id="sw-gradient-0" x1="0" x2="0" y1="1" y2="0"><stop stop-color="rgba(113, 69, 29, 1)" offset="0%"/><stop stop-color="rgba(113, 69, 29, 1)" offset="100%"/></linearGradient></defs><path style="transform:translate(0, 0px); opacity:1" fill="url(#sw-gradient-0)" d="M0,98L80,155.2C160,212,320,327,480,343C640,359,800,278,960,204.2C1120,131,1280,65,1440,98C1600,131,1760,261,1920,269.5C2080,278,2240,163,2400,114.3C2560,65,2720,82,2880,130.7C3040,180,3200,261,3360,310.3C3520,359,3680,376,3840,326.7C4000,278,4160,163,4320,163.3C4480,163,4640,278,4800,343C4960,408,5120,425,5280,408.3C5440,392,5600,343,5760,277.7C5920,212,6080,131,6240,114.3C6400,98,6560,147,6720,187.8C6880,229,7040,261,7200,302.2C7360,343,7520,392,7680,367.5C7840,343,8000,245,8160,171.5C8320,98,8480,49,8640,24.5C8800,0,8960,0,9120,57.2C9280,114,9440,229,9600,261.3C9760,294,9920,245,10080,187.8C10240,131,10400,65,10560,57.2C10720,49,10880,98,11040,147C11200,196,11360,245,11440,269.5L11520,294L11520,490L11440,490C11360,490,11200,490,11040,490C10880,490,10720,490,10560,490C10400,490,10240,490,10080,490C9920,490,9760,490,9600,490C9440,490,9280,490,9120,490C8960,490,8800,490,8640,490C8480,490,8320,490,8160,490C8000,490,7840,490,7680,490C7520,490,7360,490,7200,490C7040,490,6880,490,6720,490C6560,490,6400,490,6240,490C6080,490,5920,490,5760,490C5600,490,5440,490,5280,490C5120,490,4960,490,4800,490C4640,490,4480,490,4320,490C4160,490,4000,490,3840,490C3680,490,3520,490,3360,490C3200,490,3040,490,2880,490C2720,490,2560,490,2400,490C2240,490,2080,490,1920,490C1760,490,1600,490,1440,490C1280,490,1120,490,960,490C800,490,640,490,480,490C320,490,160,490,80,490L0,490Z"/></svg>